HIERARCHY
ROOT mixamorig:Hips
{
  OFFSET 0.000000 0.000000 0.000000
  CHANNELS 6 Xposition Yposition Zposition Xrotation Yrotation Zrotation
  JOINT mixamorig:Spine
  {
    OFFSET 1.719088 25.168327 -4.215464
    CHANNELS 3 Xrotation Yrotation Zrotation
    JOINT mixamorig:Spine2
    {
      OFFSET 1.719088 25.168327 -4.215464
      CHANNELS 3 Xrotation Yrotation Zrotation
      JOINT mixamorig:Neck
      {
        OFFSET 0.000000 4.406908 0.000000
        CHANNELS 3 Xrotation Yrotation Zrotation
        JOINT mixamorig:Head
        {
          OFFSET 0.000000 5.131571 0.000000
          CHANNELS 3 Xrotation Yrotation Zrotation
          End Site
          {
            OFFSET 0.000000 1.539471 0.000000
          }
        }
      }
      JOINT mixamorig:LeftShoulder
      {
        OFFSET 16.992445 2.816427 -1.180073
        CHANNELS 3 Xrotation Yrotation Zrotation
        JOINT mixamorig:LeftArm
        {
          OFFSET 18.068965 -3.121954 -11.587926
          CHANNELS 3 Xrotation Yrotation Zrotation
          JOINT mixamorig:LeftForeArm
          {
            OFFSET -5.408186 3.708938 -12.576431
            CHANNELS 3 Xrotation Yrotation Zrotation
            JOINT mixamorig:LeftHand
            {
              OFFSET -4.000407 1.106506 -1.590694
              CHANNELS 3 Xrotation Yrotation Zrotation
              End Site
              {
                OFFSET -1.200122 0.331952 -0.477208
              }
            }
          }
        }
      }
      JOINT mixamorig:RightShoulder
      {
        OFFSET -16.992445 2.816427 1.180073
        CHANNELS 3 Xrotation Yrotation Zrotation
        JOINT mixamorig:RightArm
        {
          OFFSET -17.304324 -8.555022 -19.418815
          CHANNELS 3 Xrotation Yrotation Zrotation
          JOINT mixamorig:RightForeArm
          {
            OFFSET 6.382291 6.914577 -18.508580
            CHANNELS 3 Xrotation Yrotation Zrotation
            JOINT mixamorig:RightHand
            {
              OFFSET 5.389738 2.442453 -3.552078
              CHANNELS 3 Xrotation Yrotation Zrotation
              End Site
              {
                OFFSET 1.616921 0.732736 -1.065623
              }
            }
          }
        }
      }
    }
  }
  JOINT mixamorig:LeftUpLeg
  {
    OFFSET 9.167292 0.244222 2.969378
    CHANNELS 3 Xrotation Yrotation Zrotation
    JOINT mixamorig:LeftLeg
    {
      OFFSET 0.950825 -44.361071 -2.100328
      CHANNELS 3 Xrotation Yrotation Zrotation
      JOINT mixamorig:LeftFoot
      {
        OFFSET -0.880896 -36.612737 19.559270
        CHANNELS 3 Xrotation Yrotation Zrotation
        JOINT mixamorig:LeftToeBase
        {
          OFFSET 3.220046 -3.157198 -4.466946
          CHANNELS 3 Xrotation Yrotation Zrotation
          End Site
          {
            OFFSET 0.966014 -0.947160 -1.340084
          }
        }
      }
    }
  }
  JOINT mixamorig:RightUpLeg
  {
    OFFSET -9.167292 -0.244222 -2.969378
    CHANNELS 3 Xrotation Yrotation Zrotation
    JOINT mixamorig:RightLeg
    {
      OFFSET 3.688810 -35.639201 3.437236
      CHANNELS 3 Xrotation Yrotation Zrotation
      JOINT mixamorig:RightFoot
      {
        OFFSET -4.221295 -41.549927 18.088705
        CHANNELS 3 Xrotation Yrotation Zrotation
        JOINT mixamorig:RightToeBase
        {
          OFFSET -4.472390 -1.075068 -9.863885
          CHANNELS 3 Xrotation Yrotation Zrotation
          End Site
          {
            OFFSET -1.341717 -0.322520 -2.959165
          }
        }
      }
    }
  }
}
MOTION
Frames: 12
Frame Time: 0.083333
0.097517 0.272236 0.062458 2.146954 -0.145297 0.003884 -0.000000 0.000000 0.000000 -9.062496 6.597612 0.696175 8.523893 -1.068782 7.970860 8.289581 -2.245808 7.907016 5.013475 -9.564008 -2.142559 21.666958 16.720448 1.551532 -15.060265 -5.598479 -14.117559 0.000000 0.000000 0.000000 13.370566 9.700174 -13.725235 37.720781 -13.319911 16.414507 -25.102241 -1.552219 19.202135 0.000000 0.000000 0.000000 -2.264095 0.154577 -0.255909 0.431428 0.120640 0.517139 -0.157064 -0.044978 -0.196078 0.000000 0.000000 0.000000 -1.966191 0.150599 -0.136821 0.472674 0.069671 0.471877 -1.756968 0.136990 0.145606 0.000000 0.000000 0.000000
0.096868 0.273074 0.043273 2.464071 -0.166678 -0.001616 -0.000000 0.000000 0.000000 -9.082393 6.334787 0.592351 8.392975 -0.895178 7.927197 8.185850 -2.051905 7.886341 5.325607 -9.551149 -0.898605 23.221668 13.959740 3.740085 -14.524584 -0.726501 -15.961517 0.000000 0.000000 0.000000 12.692032 8.773424 -13.227391 33.966025 -9.264981 12.976348 -22.073538 -3.992927 17.915424 0.000000 0.000000 0.000000 -2.560484 0.173631 -0.232808 0.377439 0.124272 0.516206 -0.174008 0.002881 -0.274377 0.000000 0.000000 0.000000 -2.297057 0.168924 -0.114647 0.439095 0.060999 0.432416 -1.581318 0.188275 0.115595 0.000000 0.000000 0.000000
0.095180 0.274981 0.007829 7.469542 -0.504045 -0.003474 0.000000 0.000000 0.000000 -8.834546 10.112912 0.267569 5.835190 -1.102287 7.760440 5.624465 -1.893643 7.669964 6.851749 -19.464228 12.996357 62.398732 30.123502 5.135177 -39.451078 10.980883 -49.833083 0.000000 0.000000 0.000000 10.274510 28.776016 -29.337951 92.300658 -15.090031 21.639343 -54.090600 -16.729494 46.460463 0.000000 0.000000 0.000000 -7.759551 0.519307 -0.623293 1.001680 0.367380 1.466397 -0.590863 0.219053 -1.086374 0.000000 0.000000 0.000000 -7.023972 0.505530 -0.302521 1.121531 0.147238 1.120552 -4.008006 0.680021 0.268113 0.000000 0.000000 0.000000
0.091480 0.276531 -0.019394 10.483188 -0.700767 0.044805 0.000000 0.000000 0.000000 -8.735963 11.681191 -0.228632 4.396800 -0.552801 7.608609 4.282362 -1.136682 7.584255 12.760264 -26.357146 30.972639 92.799573 23.746733 14.601380 -52.156436 40.934478 -79.042276 0.000000 0.000000 0.000000 10.134127 34.808224 -36.105131 105.251539 -2.720842 16.412229 -59.595999 -31.085468 55.406591 0.000000 0.000000 0.000000 -11.156486 0.717046 -0.895007 1.538530 0.571670 2.119678 -1.197832 0.978465 -2.460024 0.000000 0.000000 0.000000 -9.872522 0.700771 -0.499467 1.260853 0.152839 1.399355 -4.795911 1.283574 0.332255 0.000000 0.000000 0.000000
0.087088 0.276343 -0.032621 6.545374 -0.414631 0.236481 0.000000 0.000000 0.000000 -8.625855 13.048095 0.332121 6.286853 -0.930181 8.015024 6.091247 -1.806986 7.954302 22.173028 -28.997819 41.090833 91.435028 15.294128 10.053041 -52.531299 41.058437 -79.367625 0.000000 0.000000 0.000000 22.074620 30.134645 -34.433418 92.676027 -10.735546 29.950394 -60.053886 -19.205944 49.773732 0.000000 0.000000 0.000000 -8.183135 0.440056 -1.261009 2.631594 0.680073 2.340016 -1.930804 2.042377 -3.826159 0.000000 0.000000 0.000000 -5.773892 0.439077 -0.976119 0.954938 0.136339 1.525592 -5.173355 1.458284 0.627843 0.000000 0.000000 0.000000
0.081025 0.275313 -0.033180 2.641506 -0.118759 0.405573 0.000000 0.000000 0.000000 -8.518764 14.431245 1.127288 8.139690 -1.351903 8.427645 7.844990 -2.544883 8.309563 31.867890 -31.917277 51.727590 90.352853 7.110092 4.740260 -52.812535 40.974117 -79.794733 0.000000 0.000000 0.000000 34.168896 25.021585 -32.842734 79.693654 -18.022195 39.230133 -59.236689 -9.573534 45.287507 0.000000 0.000000 0.000000 -5.262490 0.124527 -1.579606 3.740554 0.794508 2.559843 -2.680991 3.091750 -5.202511 0.000000 0.000000 0.000000 -1.710989 0.134394 -1.392784 0.647975 0.116754 1.652482 -5.542527 1.631597 0.919361 0.000000 0.000000 0.000000
0.072791 0.275948 -0.026649 -1.189094 0.178144 0.534021 0.000000 0.000000 0.000000 -8.433884 15.596804 2.119359 9.987057 -1.745972 8.810554 9.588164 -3.276091 8.627213 41.265774 -34.516345 61.710384 88.861349 0.059173 -2.099711 -53.431048 39.406005 -79.311656 0.000000 0.000000 0.000000 45.742591 19.997727 -31.659852 66.528851 -23.550836 45.337489 -57.658660 -1.667310 41.192298 0.000000 0.000000 0.000000 -2.419041 -0.214101 -1.769961 4.860265 0.879769 2.665440 -3.468974 4.185136 -6.564248 0.000000 0.000000 0.000000 2.262756 -0.197203 -1.762526 0.357555 0.101334 1.820152 -5.985397 1.779571 1.239723 0.000000 0.000000 0.000000
0.065323 0.277910 -0.021168 -4.107841 0.393199 0.533720 0.000000 0.000000 0.000000 -7.760156 14.706407 2.804466 10.795621 -1.755913 8.339670 10.371146 -3.452310 8.145236 49.319002 -35.218949 68.698869 78.948421 -3.882057 -10.907353 -50.907877 31.277893 -70.018531 0.000000 0.000000 0.000000 55.520257 16.290428 -31.367268 51.059050 -24.380051 45.758120 -51.209907 4.281744 34.154961 0.000000 0.000000 0.000000 0.011714 -0.469967 -1.539286 5.382063 0.787056 2.230567 -3.904739 4.896210 -7.092836 0.000000 0.000000 0.000000 5.172828 -0.455287 -1.929861 0.143374 0.098966 1.924856 -6.097239 1.693801 1.489370 0.000000 0.000000 0.000000
0.060140 0.278600 -0.011813 -4.919653 0.414128 0.314798 0.000000 0.000000 0.000000 -5.552788 9.533531 2.433006 8.954508 -1.001047 5.869221 8.681822 -2.402324 5.795355 55.374420 -32.825078 71.097156 50.102412 -3.159125 -19.524034 -38.025023 12.506049 -42.906937 0.000000 0.000000 0.000000 62.726449 14.761355 -32.294401 29.611895 -17.282690 35.275198 -33.820438 6.919820 20.138421 0.000000 0.000000 0.000000 1.551599 -0.494722 -0.631947 4.413682 0.362798 0.873030 -3.384045 4.454151 -5.624499 0.000000 0.000000 0.000000 5.655707 -0.497379 -1.632621 0.053473 0.106891 1.723348 -5.070510 1.124989 1.436951 0.000000 0.000000 0.000000
0.057108 0.276072 0.004609 -5.431532 0.414945 0.124684 0.000000 0.000000 0.000000 -3.730300 4.921685 1.904906 7.548945 -0.016938 3.790154 7.454129 -1.167532 3.956245 60.581654 -30.243479 73.033018 23.613515 -2.275513 -27.588973 -23.469382 -3.748220 -20.380942 0.000000 0.000000 0.000000 68.927702 13.463912 -33.512012 11.138685 -10.202289 26.133299 -18.355619 8.214536 8.517812 0.000000 0.000000 0.000000 2.731822 -0.480763 0.206102 3.682008 -0.066868 -0.397320 -3.253854 4.387328 -4.598157 0.000000 0.000000 0.000000 5.920573 -0.532508 -1.786286 -0.083781 0.134405 1.965343 -4.214323 0.381766 1.470104 0.000000 0.000000 0.000000
0.055656 0.271901 0.024742 -11.394740 0.886414 0.343179 0.000000 0.000000 0.000000 -8.757797 11.465869 4.042229 17.387142 0.627257 8.963742 17.257530 -2.018446 9.539964 62.256095 -27.480974 73.628426 52.996071 -5.232473 -66.817104 -53.734385 -10.958615 -47.120618 0.000000 0.000000 0.000000 70.968645 13.370003 -34.638374 25.965935 -22.473286 63.085385 -41.644006 20.930828 20.316314 0.000000 0.000000 0.000000 5.583853 -1.033949 0.416970 8.531402 -0.173728 -0.937354 -8.107903 11.010462 -11.291908 0.000000 0.000000 0.000000 12.683027 -1.266762 -5.668397 -0.386772 0.349889 5.925983 -9.809762 0.020587 3.659179 0.000000 0.000000 0.000000
0.056783 0.267700 0.043986 -8.065864 0.677220 0.493380 0.000000 0.000000 0.000000 -8.712821 11.871692 3.134648 16.386718 1.598677 9.244104 16.389627 -0.938208 10.081448 58.550329 -26.017393 72.113909 46.694462 -5.199223 -72.222829 -49.306592 -17.297081 -45.808101 0.000000 0.000000 0.000000 66.405537 14.485933 -34.601377 24.346142 -17.748949 68.556462 -37.140881 25.405218 18.180523 0.000000 0.000000 0.000000 3.769219 -0.807416 0.236828 8.082273 -0.195609 -0.909367 -9.456193 13.085188 -12.920541 0.000000 0.000000 0.000000 9.839766 -1.333581 -9.851575 -0.961496 0.352793 9.547405 -9.501449 -1.633443 4.182136 0.000000 0.000000 0.000000
